<svg xmlns="http://www.w3.org/2000/svg" width="500" height="700" viewBox="0 0 500 700">
  <defs>
    <radialGradient id="bg" cx="50%" cy="24%" r="78%">
      <stop offset="0%" stop-color="#1e3a8a"/>
      <stop offset="54%" stop-color="#0f172a"/>
      <stop offset="100%" stop-color="#020617"/>
    </radialGradient>
    <linearGradient id="gear" x1="0" x2="0" y1="0" y2="1">
      <stop offset="0%" stop-color="#1e3a8a"/>
      <stop offset="50%" stop-color="#38bdf8" stop-opacity=".78"/>
      <stop offset="100%" stop-color="#050816"/>
    </linearGradient>
    <linearGradient id="gold" x1="0" x2="1" y1="0" y2="1">
      <stop offset="0%" stop-color="#7c4a03"/>
      <stop offset="45%" stop-color="#facc15"/>
      <stop offset="100%" stop-color="#fff3c4"/>
    </linearGradient>
    <filter id="shadow"><feDropShadow dx="0" dy="18" stdDeviation="13" flood-color="#000" flood-opacity=".62"/></filter>
  </defs>
  <rect width="500" height="700" rx="38" fill="url(#bg)"/>
  <rect x="18" y="18" width="464" height="664" rx="32" fill="none" stroke="url(#gold)" stroke-width="9"/>
  <circle cx="250" cy="238" r="188" fill="#38bdf8" opacity="0.175"/>
  <circle cx="250" cy="270" r="176" fill="#38bdf8" opacity="0.098"/>
  <path d="M0 592 Q250 510 500 592 L500 700 L0 700 Z" fill="rgba(0,0,0,.50)"/>
  <g filter="url(#shadow)">
    
        <circle cx="360" cy="340" r="54" fill="#0b1020" stroke="#38bdf8" stroke-width="11"/>
        <path d="M360 292 L380 340 L360 388 L340 340 Z" fill="#bae6fd"/>
        <line x1="360" y1="392" x2="360" y2="588" stroke="#38bdf8" stroke-width="10" stroke-linecap="round"/>
        
    
      <path d="M122.5 238 Q250 150 377.5 238 L438 680 L62 680 Z"
            fill="#050816" opacity=".76" stroke="#38bdf8" stroke-width="4"/>
    
    <ellipse cx="250" cy="232" rx="116" ry="40" fill="#050816" opacity=".75"/>
    <path d="M166.5 258 Q250 198 333.5 258 L371.5 660 L128.5 660 Z"
          fill="url(#gear)" stroke="#facc15" stroke-width="6"/>
    <path d="M186.5 334 L313.5 334" stroke="#bae6fd" stroke-width="6" opacity=".9"/>
    <circle cx="250" cy="172" r="66" fill="#b7794b" stroke="#facc15" stroke-width="7"/>
    <path d="M178 162 Q250 78 322 162 Q302 102 250 94 Q198 102 178 162Z" fill="#111827"/>
    
    <circle cx="229" cy="174" r="6" fill="#111827"/>
    <circle cx="271" cy="174" r="6" fill="#111827"/>
    <path d="M228 209 Q250 225 272 209" stroke="#111827" stroke-width="5" fill="none" stroke-linecap="round"/>
    <path d="M220 400 L250 356 L280 400 L250 444 Z" fill="#facc15" stroke="#bae6fd" stroke-width="4" opacity=".92"/>
    <text x="250" y="386" text-anchor="middle" fill="#ffffff" font-family="Georgia,serif" font-size="24" font-weight="700">PATH</text>
    <circle cx="130" cy="420" r="6" fill="#38bdf8" opacity=".72"/><circle cx="178" cy="454" r="6" fill="#38bdf8" opacity=".72"/>
  </g>
  <rect x="0" y="612" width="500" height="88" fill="rgba(0,0,0,.66)"/>
  <text x="250" y="646" text-anchor="middle" fill="#fff8dc" font-family="Georgia,serif" font-size="27" font-weight="700">Adept Explorer</text>
  <text x="250" y="675" text-anchor="middle" fill="#bae6fd" font-family="Georgia,serif" font-size="19">Expedition Gear</text>
</svg>