<svg xmlns="http://www.w3.org/2000/svg" width="500" height="700" viewBox="0 0 500 700">
  <defs>
    <radialGradient id="bg" cx="50%" cy="25%" r="75%">
      <stop offset="0%" stop-color="#7c2d12"/>
      <stop offset="58%" stop-color="#111827"/>
      <stop offset="100%" stop-color="#020617"/>
    </radialGradient>
    <filter id="shadow"><feDropShadow dx="0" dy="16" stdDeviation="12" flood-color="#000" flood-opacity=".55"/></filter>
    <linearGradient id="robe" x1="0" x2="0" y1="0" y2="1">
      <stop offset="0%" stop-color="#475569"/>
      <stop offset="100%" stop-color="#020617"/>
    </linearGradient>
  </defs>
  <rect width="500" height="700" fill="url(#bg)"/>
  <circle cx="250" cy="220" r="190" fill="#f59e0b" opacity="0.33999999999999997"/>
  <circle cx="250" cy="270" r="184" fill="#f59e0b" opacity="0.13"/>
  <path d="M0 590 Q250 505 500 590 L500 700 L0 700 Z" fill="rgba(0,0,0,.45)"/>
  <g filter="url(#shadow)">
    <path d="M145 235 Q250 170 355 235 L430 620 L70 620 Z" fill="#020617" opacity=".78" stroke="#f59e0b" stroke-width="5"/>
    <path d="M360 250 L430 290 L410 440 Q360 520 310 440 L290 290 Z" fill="#050816" stroke="#f59e0b" stroke-width="12"/><text x="360" y="390" text-anchor="middle" font-size="64">🛡️</text>
    <path d="M155 270 Q250 200 345 270 L390 650 L110 650 Z" fill="url(#robe)" stroke="#f59e0b" stroke-width="8"/>
    <path d="M180 320 L320 320" stroke="#f59e0b" stroke-width="8" opacity=".85"/>
    <circle cx="250" cy="165" r="72" fill="#b7794b" stroke="#f59e0b" stroke-width="7"/>
    <path d="M172 155 Q250 70 328 155 Q305 100 250 92 Q195 100 172 155Z" fill="#111827"/>
    
    <circle cx="225" cy="168" r="7" fill="#111827"/>
    <circle cx="275" cy="168" r="7" fill="#111827"/>
    <path d="M224 205 Q250 225 276 205" stroke="#111827" stroke-width="6" fill="none" stroke-linecap="round"/>
    <text x="250" y="455" text-anchor="middle" font-size="74">🛡️</text>
    <circle cx="170" cy="390" r="6" fill="#f59e0b" opacity=".8"/><circle cx="210" cy="428" r="6" fill="#f59e0b" opacity=".8"/><circle cx="250" cy="390" r="6" fill="#f59e0b" opacity=".8"/>
  </g>
  <rect x="0" y="618" width="500" height="82" fill="rgba(0,0,0,.62)"/>
  <text x="250" y="658" text-anchor="middle" fill="#fff" font-family="Georgia,serif" font-size="28">Veteran Guardian</text>
</svg>