<svg xmlns="http://www.w3.org/2000/svg" width="500" height="700" viewBox="0 0 500 700">
  <defs>
    <radialGradient id="bg" cx="50%" cy="24%" r="78%">
      <stop offset="0%" stop-color="#991b1b"/>
      <stop offset="54%" stop-color="#450a0a"/>
      <stop offset="100%" stop-color="#020617"/>
    </radialGradient>
    <linearGradient id="gear" x1="0" x2="0" y1="0" y2="1">
      <stop offset="0%" stop-color="#991b1b"/>
      <stop offset="50%" stop-color="#f97316" stop-opacity=".78"/>
      <stop offset="100%" stop-color="#050816"/>
    </linearGradient>
    <linearGradient id="gold" x1="0" x2="1" y1="0" y2="1">
      <stop offset="0%" stop-color="#7c4a03"/>
      <stop offset="45%" stop-color="#facc15"/>
      <stop offset="100%" stop-color="#fff3c4"/>
    </linearGradient>
    <filter id="shadow"><feDropShadow dx="0" dy="18" stdDeviation="13" flood-color="#000" flood-opacity=".62"/></filter>
  </defs>
  <rect width="500" height="700" rx="38" fill="url(#bg)"/>
  <rect x="18" y="18" width="464" height="664" rx="32" fill="none" stroke="url(#gold)" stroke-width="11"/>
  <circle cx="250" cy="238" r="188" fill="#f97316" opacity="0.28500000000000003"/>
  <circle cx="250" cy="270" r="212" fill="#f97316" opacity="0.134"/><path d="M95 575 Q250 510 405 575" stroke="#facc15" stroke-width="6" opacity=".65" fill="none"/>
  <path d="M0 592 Q250 510 500 592 L500 700 L0 700 Z" fill="rgba(0,0,0,.50)"/>
  <g filter="url(#shadow)">
    
        <path d="M360 230 Q442 318 384 428 Q338 512 286 426 Q248 352 320 286 Q356 254 344 198 Q376 216 360 230Z" fill="#f97316" stroke="#fed7aa" stroke-width="8"/>
        <path d="M352 300 Q386 352 356 404 Q334 438 312 404 Q292 362 330 330 Q350 314 344 284 Q360 294 352 300Z" fill="#fed7aa" opacity=".78"/>
        
    
      <path d="M110.5 238 Q250 150 389.5 238 L438 680 L62 680 Z"
            fill="#050816" opacity=".76" stroke="#f97316" stroke-width="4"/>
    
    <ellipse cx="250" cy="232" rx="132" ry="40" fill="#050816" opacity=".75"/>
    <path d="M154.5 258 Q250 198 345.5 258 L383.5 660 L116.5 660 Z"
          fill="url(#gear)" stroke="#facc15" stroke-width="8"/>
    <path d="M174.5 334 L325.5 334" stroke="#fed7aa" stroke-width="8" opacity=".9"/>
    <circle cx="250" cy="172" r="72" fill="#b7794b" stroke="#facc15" stroke-width="9"/>
    <path d="M178 162 Q250 78 322 162 Q302 102 250 94 Q198 102 178 162Z" fill="#111827"/>
    <path d="M204 116 L226 78 L250 116 L274 78 L296 116 Z" fill="#facc15" stroke="#fff3c4" stroke-width="3"/>
    <circle cx="229" cy="174" r="6" fill="#111827"/>
    <circle cx="271" cy="174" r="6" fill="#111827"/>
    <path d="M228 209 Q250 225 272 209" stroke="#111827" stroke-width="5" fill="none" stroke-linecap="round"/>
    <path d="M220 400 L250 356 L280 400 L250 444 Z" fill="#facc15" stroke="#fed7aa" stroke-width="4" opacity=".92"/>
    <text x="250" y="386" text-anchor="middle" fill="#ffffff" font-family="Georgia,serif" font-size="24" font-weight="700">EMBER</text>
    <circle cx="130" cy="420" r="8" fill="#f97316" opacity=".72"/><circle cx="178" cy="454" r="8" fill="#f97316" opacity=".72"/><circle cx="226" cy="420" r="8" fill="#f97316" opacity=".72"/><circle cx="274" cy="454" r="8" fill="#f97316" opacity=".72"/>
  </g>
  <rect x="0" y="612" width="500" height="88" fill="rgba(0,0,0,.66)"/>
  <text x="250" y="646" text-anchor="middle" fill="#fff8dc" font-family="Georgia,serif" font-size="27" font-weight="700">Champion Phoenix</text>
  <text x="250" y="675" text-anchor="middle" fill="#fed7aa" font-family="Georgia,serif" font-size="19">Ascendant Phoenix Gear</text>
</svg>