<svg xmlns="http://www.w3.org/2000/svg" width="500" height="700" viewBox="0 0 500 700">
  <defs>
    <radialGradient id="bg" cx="50%" cy="24%" r="78%">
      <stop offset="0%" stop-color="#312e81"/>
      <stop offset="54%" stop-color="#0b1020"/>
      <stop offset="100%" stop-color="#020617"/>
    </radialGradient>
    <linearGradient id="gear" x1="0" x2="0" y1="0" y2="1">
      <stop offset="0%" stop-color="#312e81"/>
      <stop offset="50%" stop-color="#a855f7" stop-opacity=".78"/>
      <stop offset="100%" stop-color="#050816"/>
    </linearGradient>
    <linearGradient id="gold" x1="0" x2="1" y1="0" y2="1">
      <stop offset="0%" stop-color="#7c4a03"/>
      <stop offset="45%" stop-color="#facc15"/>
      <stop offset="100%" stop-color="#fff3c4"/>
    </linearGradient>
    <filter id="shadow"><feDropShadow dx="0" dy="18" stdDeviation="13" flood-color="#000" flood-opacity=".62"/></filter>
  </defs>
  <rect width="500" height="700" rx="38" fill="url(#bg)"/>
  <rect x="18" y="18" width="464" height="664" rx="32" fill="none" stroke="url(#gold)" stroke-width="8"/>
  <circle cx="250" cy="238" r="188" fill="#a855f7" opacity="0.12"/>
  
  <path d="M0 592 Q250 510 500 592 L500 700 L0 700 Z" fill="rgba(0,0,0,.50)"/>
  <g filter="url(#shadow)">
    
        <line x1="362" y1="180" x2="362" y2="575" stroke="#a855f7" stroke-width="13" stroke-linecap="round"/>
        <circle cx="362" cy="144" r="25" fill="#090b14" stroke="#d8b4fe" stroke-width="8"/>
        <path d="M362 102 L381 144 L362 186 L343 144 Z" fill="#a855f7" opacity=".9"/>
        
    
    <ellipse cx="250" cy="232" rx="108" ry="40" fill="#050816" opacity=".75"/>
    <path d="M172.5 258 Q250 198 327.5 258 L365.5 660 L134.5 660 Z"
          fill="url(#gear)" stroke="#facc15" stroke-width="5"/>
    <path d="M192.5 334 L307.5 334" stroke="#d8b4fe" stroke-width="5" opacity=".9"/>
    <circle cx="250" cy="172" r="63" fill="#b7794b" stroke="#facc15" stroke-width="6"/>
    <path d="M178 162 Q250 78 322 162 Q302 102 250 94 Q198 102 178 162Z" fill="#111827"/>
    
    <circle cx="229" cy="174" r="6" fill="#111827"/>
    <circle cx="271" cy="174" r="6" fill="#111827"/>
    <path d="M228 209 Q250 225 272 209" stroke="#111827" stroke-width="5" fill="none" stroke-linecap="round"/>
    <path d="M220 400 L250 356 L280 400 L250 444 Z" fill="#facc15" stroke="#d8b4fe" stroke-width="4" opacity=".92"/>
    <text x="250" y="386" text-anchor="middle" fill="#ffffff" font-family="Georgia,serif" font-size="24" font-weight="700">ARCANE</text>
    <circle cx="130" cy="420" r="5" fill="#a855f7" opacity=".72"/>
  </g>
  <rect x="0" y="612" width="500" height="88" fill="rgba(0,0,0,.66)"/>
  <text x="250" y="646" text-anchor="middle" fill="#fff8dc" font-family="Georgia,serif" font-size="27" font-weight="700">Apprentice Sage</text>
  <text x="250" y="675" text-anchor="middle" fill="#d8b4fe" font-family="Georgia,serif" font-size="19">Scholar Robes</text>
</svg>